<svg viewBox="0 0 1200 800" xmlns="http://www.w3.org/2000/svg">
  <defs>
    <linearGradient id="sky" x1="0" y1="0" x2="0" y2="1">
      <stop offset="0%" stop-color="#0f1c33"/>
      <stop offset="55%" stop-color="#2a3a5a"/>
      <stop offset="100%" stop-color="#5a4a3a"/>
    </linearGradient>
  </defs>
  <rect width="1200" height="800" fill="url(#sky)"/>
  <circle id="moon" cx="980" cy="90" r="48" fill="#e8e0c8"/>
  <rect x="0" y="520" width="1200" height="280" fill="#1a2a1a"/>
  <path id="puddle" d="M80 680 Q250 620 420 690 Q600 750 780 670 Q950 600 1120 710 L1120 780 L80 780 Z" fill="#0a2a3a" opacity="0.75"/>
  <g id="stalls">
    <rect x="60" y="380" width="170" height="150" fill="#3a2a1a" stroke="#1a0a00" stroke-width="3"/>
    <rect x="50" y="360" width="190" height="30" fill="#5a3a1a"/>
    <rect x="90" y="400" width="50" height="60" fill="#2a1a0a"/>
    <rect x="320" y="400" width="200" height="130" fill="#2a3a2a" stroke="#0a1a0a" stroke-width="3"/>
    <rect x="310" y="380" width="220" height="28" fill="#4a5a2a"/>
    <rect x="380" y="420" width="40" height="50" fill="#1a2a1a"/>
    <rect x="600" y="370" width="180" height="160" fill="#3a1a2a" stroke="#1a0010" stroke-width="3"/>
    <rect x="590" y="350" width="200" height="30" fill="#5a2a3a"/>
    <rect x="650" y="400" width="55" height="55" fill="#2a0a1a"/>
    <rect x="850" y="390" width="160" height="140" fill="#2a2a3a" stroke="#0a0a1a" stroke-width="3"/>
    <rect x="840" y="370" width="180" height="28" fill="#3a3a5a"/>
  </g>
  <g id="rain">
    <line x1="20" y1="0" x2="35" y2="70" stroke="#8aa0b0" stroke-width="1.5"/>
    <line x1="50" y1="10" x2="65" y2="80" stroke="#8aa0b0" stroke-width="1.2"/>
    <line x1="80" y1="5" x2="95" y2="75" stroke="#9ab0c0" stroke-width="1.4"/>
    <line x1="110" y1="0" x2="125" y2="65" stroke="#8aa0b0" stroke-width="1.3"/>
    <line x1="140" y1="15" x2="155" y2="85" stroke="#9ab0c0" stroke-width="1.1"/>
    <line x1="170" y1="0" x2="185" y2="70" stroke="#8aa0b0" stroke-width="1.5"/>
    <line x1="200" y1="8" x2="215" y2="78" stroke="#9ab0c0" stroke-width="1.2"/>
    <line x1="230" y1="0" x2="245" y2="60" stroke="#8aa0b0" stroke-width="1.4"/>
    <line x1="260" y1="12" x2="275" y2="82" stroke="#9ab0c0" stroke-width="1.3"/>
    <line x1="290" y1="0" x2="305" y2="70" stroke="#8aa0b0" stroke-width="1.1"/>
    <line x1="320" y1="5" x2="335" y2="75" stroke="#9ab0c0" stroke-width="1.5"/>
    <line x1="350" y1="0" x2="365" y2="65" stroke="#8aa0b0" stroke-width="1.2"/>
    <line x1="380" y1="10" x2="395" y2="80" stroke="#9ab0c0" stroke-width="1.4"/>
    <line x1="410" y1="0" x2="425" y2="70" stroke="#8aa0b0" stroke-width="1.3"/>
    <line x1="440" y1="15" x2="455" y2="85" stroke="#9ab0c0" stroke-width="1.1"/>
    <line x1="470" y1="0" x2="485" y2="60" stroke="#8aa0b0" stroke-width="1.5"/>
    <line x1="500" y1="8" x2="515" y2="78" stroke="#9ab0c0" stroke-width="1.2"/>
    <line x1="530" y1="0" x2="545" y2="70" stroke="#8aa0b0" stroke-width="1.4"/>
    <line x1="560" y1="12" x2="575" y2="82" stroke="#9ab0c0" stroke-width="1.3"/>
    <line x1="590" y1="0" x2="605" y2="65" stroke="#8aa0b0" stroke-width="1.1"/>
    <line x1="620" y1="5" x2="635" y2="75" stroke="#9ab0c0" stroke-width="1.5"/>
    <line x1="650" y1="0" x2="665" y2="70" stroke="#8aa0b0" stroke-width="1.2"/>
    <line x1="680" y1="10" x2="695" y2="80" stroke="#9ab0c0" stroke-width="1.4"/>
    <line x1="710" y1="0" x2="725" y2="60" stroke="#8aa0b0" stroke-width="1.3"/>
    <line x1="740" y1="15" x2="755" y2="85" stroke="#9ab0c0" stroke-width="1.1"/>
    <line x1="770" y1="0" x2="785" y2="70" stroke="#8aa0b0" stroke-width="1.5"/>
    <line x1="800" y1="8" x2="815" y2="78" stroke="#9ab0c0" stroke-width="1.2"/>
    <line x1="830" y1="0" x2="845" y2="65" stroke="#8aa0b0" stroke-width="1.4"/>
    <line x1="860" y1="12" x2="875" y2="82" stroke="#9ab0c0" stroke-width="1.3"/>
    <line x1="890" y1="0" x2="905" y2="70" stroke="#8aa0b0" stroke-width="1.1"/>
    <line x1="920" y1="5" x2="935" y2="75" stroke="#9ab0c0" stroke-width="1.5"/>
    <line x1="950" y1="0" x2="965" y2="60" stroke="#8aa0b0" stroke-width="1.2"/>
    <line x1="980" y1="10" x2="995" y2="80" stroke="#9ab0c0" stroke-width="1.4"/>
    <line x1="1010" y1="0" x2="1025" y2="70" stroke="#8aa0b0" stroke-width="1.3"/>
    <line x1="1040" y1="15" x2="1055" y2="85" stroke="#9ab0c0" stroke-width="1.1"/>
    <line x1="1070" y1="0" x2="1085" y2="65" stroke="#8aa0b0" stroke-width="1.5"/>
    <line x1="1100" y1="8" x2="1115" y2="78" stroke="#9ab0c0" stroke-width="1.2"/>
    <line x1="1130" y1="0" x2="1145" y2="70" stroke="#8aa0b0" stroke-width="1.4"/>
    <line x1="1160" y1="12" x2="1175" y2="82" stroke="#9ab0c0" stroke-width="1.3"/>
    <line x1="30" y1="20" x2="45" y2="90" stroke="#8aa0b0" stroke-width="1.1"/>
    <line x1="70" y1="25" x2="85" y2="95" stroke="#9ab0c0" stroke-width="1.5"/>
    <line x1="160" y1="18" x2="175" y2="88" stroke="#8aa0b0" stroke-width="1.2"/>
    <line x1="250" y1="22" x2="265" y2="92" stroke="#9ab0c0" stroke-width="1.4"/>
    <line x1="340" y1="28" x2="355" y2="98" stroke="#8aa0b0" stroke-width="1.3"/>
    <line x1="430" y1="15" x2="445" y2="85" stroke="#9ab0c0" stroke-width="1.1"/>
    <line x1="520" y1="20" x2="535" y2="90" stroke="#8aa0b0" stroke-width="1.5"/>
    <line x1="610" y1="25" x2="625" y2="95" stroke="#9ab0c0" stroke-width="1.2"/>
    <line x1="700" y1="18" x2="715" y2="88" stroke="#8aa0b0" stroke-width="1.4"/>
    <line x1="790" y1="22" x2="805" y2="92" stroke="#9ab0c0" stroke-width="1.3"/>
    <line x1="880" y1="28" x2="895" y2="98" stroke="#8aa0b0" stroke-width="1.1"/>
    <line x1="970" y1="15" x2="985" y2="85" stroke="#9ab0c0" stroke-width="1.5"/>
    <line x1="1060" y1="20" x2="1075" y2="90" stroke="#8aa0b0" stroke-width="1.2"/>
    <line x1="1150" y1="25" x2="1165" y2="95" stroke="#9ab0c0" stroke-width="1.4"/>
  </g>
  <text x="100" y="470" fill="#e0d0a0" font-size="22" font-family="sans-serif">HOT KAAPI</text>
  <text x="450" y="490" fill="#d0c090" font-size="18" font-family="sans-serif">Fresh Filter KAAPI</text>
  <text x="680" y="460" fill="#e8d8b0" font-size="20" font-family="sans-serif">KAAPI &amp; Snacks</text>
</svg>
