<svg xmlns="http://www.w3.org/2000/svg" viewBox="0 0 1200 800" width="1200" height="800">
  <title>Chennai monsoon street market at dusk</title>
  <defs>
    <linearGradient id="sky" x1="0" y1="0" x2="0" y2="1">
      <stop offset="0" stop-color="#0d1428"/>
      <stop offset="0.38" stop-color="#233050"/>
      <stop offset="0.66" stop-color="#57463f"/>
      <stop offset="0.84" stop-color="#93613b"/>
      <stop offset="1" stop-color="#d68a45"/>
    </linearGradient>
    <linearGradient id="roadg" x1="0" y1="0" x2="0" y2="1">
      <stop offset="0" stop-color="#2a3148"/>
      <stop offset="1" stop-color="#0d1120"/>
    </linearGradient>
    <linearGradient id="pud" x1="0" y1="0" x2="0" y2="1">
      <stop offset="0" stop-color="#4a5474"/>
      <stop offset="0.45" stop-color="#272f4a"/>
      <stop offset="1" stop-color="#1a2036"/>
    </linearGradient>
    <radialGradient id="glow">
      <stop offset="0" stop-color="#f7d98c" stop-opacity="0.85"/>
      <stop offset="1" stop-color="#f7d98c" stop-opacity="0"/>
    </radialGradient>
    <radialGradient id="vig" cx="0.5" cy="0.42" r="0.8">
      <stop offset="0.55" stop-color="#060a16" stop-opacity="0"/>
      <stop offset="1" stop-color="#060a16" stop-opacity="0.55"/>
    </radialGradient>
  </defs>

  <!-- dusk sky -->
  <rect x="0" y="0" width="1200" height="560" fill="url(#sky)"/>
  <circle cx="140" cy="58" r="1.6" fill="#cdd8ee" opacity="0.5"/>
  <circle cx="338" cy="104" r="1.2" fill="#cdd8ee" opacity="0.5"/>
  <circle cx="520" cy="44" r="1.5" fill="#cdd8ee" opacity="0.5"/>
  <circle cx="700" cy="84" r="1.2" fill="#cdd8ee" opacity="0.5"/>

  <!-- moon -->
  <circle cx="955" cy="125" r="115" fill="url(#glow)" opacity="0.55"/>
  <circle id="moon" cx="955" cy="125" r="44" fill="#f1e6c8"/>
  <circle cx="942" cy="114" r="7" fill="#d9cba6" opacity="0.5"/>
  <circle cx="966" cy="138" r="5" fill="#d9cba6" opacity="0.4"/>

  <!-- monsoon cloud banks -->
  <path d="M-20,70 Q60,30 150,52 Q210,20 300,44 Q370,26 420,58 Q360,86 300,80 Q220,102 140,88 Q50,104 -20,86 Z" fill="#141b30" opacity="0.95"/>
  <path d="M640,150 Q730,116 830,132 Q900,110 990,128 Q1080,112 1160,140 Q1200,150 1200,170 L1200,178 Q1100,196 1000,182 Q900,200 800,184 Q710,196 640,176 Z" fill="#1b2340" opacity="0.9"/>
  <path d="M880,150 Q940,132 1010,146 Q1060,138 1100,154 Q1040,172 970,166 Q920,172 880,160 Z" fill="#232c4c" opacity="0.85"/>
  <path d="M-20,300 Q120,282 260,296 Q400,282 540,300 Q400,318 260,310 Q120,320 -20,312 Z" fill="#232b48" opacity="0.5"/>

  <!-- far skyline -->
  <path d="M0,540 L0,462 L64,462 L64,448 L132,448 L132,472 L320,472 L320,452 L408,452 L408,468 L520,468 L520,444 L610,444 L610,470 L736,470 L736,450 L830,450 L830,466 L944,466 L944,446 L1042,446 L1042,464 L1130,464 L1130,452 L1200,452 L1200,540 Z" fill="#1c2542"/>
  <rect x="78" y="458" width="4" height="6" fill="#e8b04a" opacity="0.75"/>
  <rect x="94" y="458" width="4" height="6" fill="#e8b04a" opacity="0.75"/>
  <rect x="110" y="458" width="4" height="6" fill="#e8b04a" opacity="0.75"/>
  <rect x="78" y="472" width="4" height="6" fill="#e8b04a" opacity="0.75"/>
  <rect x="110" y="472" width="4" height="6" fill="#74b8bb" opacity="0.75"/>
  <rect x="534" y="452" width="4" height="6" fill="#e8b04a" opacity="0.75"/>
  <rect x="552" y="452" width="4" height="6" fill="#e8b04a" opacity="0.75"/>
  <rect x="570" y="452" width="4" height="6" fill="#e8b04a" opacity="0.75"/>
  <rect x="534" y="466" width="4" height="6" fill="#e8b04a" opacity="0.75"/>
  <rect x="958" y="454" width="4" height="6" fill="#e8b04a" opacity="0.75"/>
  <rect x="976" y="454" width="4" height="6" fill="#e8b04a" opacity="0.75"/>
  <rect x="994" y="454" width="4" height="6" fill="#74b8bb" opacity="0.75"/>

  <!-- gopuram silhouette -->
  <path d="M185,540 L185,506 L201,506 L201,474 L214,474 L214,443 L225,443 L225,414 L232,414 L232,392 L240,392 L240,414 L247,414 L247,443 L258,443 L258,474 L271,474 L271,506 L287,506 L287,540 Z" fill="#131a2c"/>
  <line x1="236" y1="392" x2="236" y2="380" stroke="#131a2c" stroke-width="3"/>
  <circle cx="236" cy="377" r="3.5" fill="#131a2c"/>

  <!-- near rooftops -->
  <path d="M0,540 L0,496 L96,496 L96,512 L168,512 L168,540 Z" fill="#121a30"/>
  <path d="M1032,540 L1032,500 L1120,500 L1120,488 L1200,488 L1200,540 Z" fill="#121a30"/>

  <!-- wet road -->
  <rect x="0" y="540" width="1200" height="260" fill="url(#roadg)"/>
  <path d="M60,636 h300" stroke="#4a5470" stroke-width="2" opacity="0.25" fill="none" stroke-linecap="round"/>
  <path d="M720,660 h260" stroke="#4a5470" stroke-width="2" opacity="0.22" fill="none" stroke-linecap="round"/>
  <path d="M180,764 h420" stroke="#4a5470" stroke-width="2" opacity="0.18" fill="none" stroke-linecap="round"/>

  <!-- puddle with light reflections -->
  <path id="puddle" d="M252,700 Q300,682 420,684 Q560,686 642,700 Q702,711 660,724 Q540,742 400,740 Q288,738 250,722 Q226,710 252,700 Z" fill="url(#pud)" opacity="0.92"/>
  <path d="M448,700 h92" stroke="#f2c14e" stroke-width="3" opacity="0.35" fill="none" stroke-linecap="round"/>
  <path d="M470,712 h132" stroke="#f2c14e" stroke-width="2" opacity="0.22" fill="none" stroke-linecap="round"/>
  <path d="M505,724 h80" stroke="#f2c14e" stroke-width="2" opacity="0.15" fill="none" stroke-linecap="round"/>
  <path d="M298,708 h72" stroke="#6fb7ba" stroke-width="2" opacity="0.22" fill="none" stroke-linecap="round"/>
  <path d="M636,696 h42" stroke="#f1e6c8" stroke-width="2" opacity="0.3" fill="none" stroke-linecap="round"/>

  <!-- market stalls -->
  <g id="stalls">
    <!-- stall A: garlands and flowers -->
    <line x1="90" y1="620" x2="90" y2="380" stroke="#2a2118" stroke-width="5"/>
    <line x1="300" y1="620" x2="300" y2="380" stroke="#2a2118" stroke-width="5"/>
    <rect x="88" y="430" width="214" height="130" fill="#35301f"/>
    <rect x="80" y="555" width="230" height="55" fill="#26303f"/>
    <rect x="80" y="555" width="230" height="10" fill="#39455c"/>
    <path d="M70,386 L330,398 L330,430 Q314,442 298,429 Q282,441 266,428 Q250,440 234,427 Q218,439 202,426 Q186,438 170,425 Q154,437 138,424 Q122,436 106,423 Q90,435 70,422 Z" fill="#2f657f"/>
    <path d="M122,389 L154,390 L154,425 L122,423 Z" fill="#275a72"/>
    <path d="M218,393 L250,394 L250,428 L218,427 Z" fill="#275a72"/>
    <path d="M120,426 q4,38 0,76" stroke="#e08a2c" stroke-width="5" stroke-dasharray="0.5 8" stroke-linecap="round" fill="none"/>
    <path d="M160,428 q-4,44 0,88" stroke="#d9731f" stroke-width="5" stroke-dasharray="0.5 8" stroke-linecap="round" fill="none"/>
    <path d="M205,430 q4,34 0,68" stroke="#e08a2c" stroke-width="5" stroke-dasharray="0.5 8" stroke-linecap="round" fill="none"/>
    <rect x="98" y="532" width="58" height="24" fill="#4a3826"/>
    <rect x="162" y="538" width="50" height="18" fill="#3c2e1e"/>
    <circle cx="112" cy="528" r="6" fill="#e8912d"/>
    <circle cx="126" cy="524" r="6" fill="#e8912d"/>
    <circle cx="140" cy="528" r="6" fill="#e8912d"/>
    <circle cx="126" cy="536" r="6" fill="#e8912d"/>
    <path d="M168,536 q12,-10 26,0 q-12,7 -26,0 Z" fill="#c9a83c"/>
    <line x1="195" y1="428" x2="195" y2="450" stroke="#10141f" stroke-width="2"/>
    <circle cx="195" cy="455" r="15" fill="url(#glow)" opacity="0.8"/>
    <circle cx="195" cy="455" r="5" fill="#ffd27a"/>
    <circle cx="262" cy="512" r="10" fill="#10141f"/>
    <path d="M246,556 Q248,524 262,522 Q276,524 278,556 Z" fill="#10141f"/>
    <rect x="196" y="468" width="104" height="24" fill="#1c130a" stroke="#6b5a3a" stroke-width="1.5"/>
    <text x="248" y="484" text-anchor="middle" font-family="Georgia, serif" font-size="11" letter-spacing="1" fill="#e8c98a">POO GARLANDS</text>

    <!-- stall B: kaapi -->
    <line x1="435" y1="620" x2="435" y2="362" stroke="#241c12" stroke-width="5"/>
    <line x1="695" y1="620" x2="695" y2="358" stroke="#241c12" stroke-width="5"/>
    <rect x="433" y="398" width="264" height="152" fill="#3a2d1a"/>
    <rect x="468" y="438" width="130" height="112" fill="#6b4a1e" opacity="0.55"/>
    <rect x="425" y="548" width="280" height="60" fill="#2a2418"/>
    <rect x="425" y="548" width="280" height="8" fill="#4a3c24"/>
    <path d="M415,362 L715,352 L715,392 Q698,404 681,391 Q664,403 647,390 Q630,402 613,389 Q596,401 579,388 Q562,400 545,387 Q528,399 511,386 Q494,398 477,385 Q460,397 443,384 Q431,392 415,383 Z" fill="#2e5237"/>
    <path d="M472,361 L504,360 L504,386 L472,387 Z" fill="#26462e"/>
    <path d="M592,357 L624,356 L624,389 L592,390 Z" fill="#26462e"/>
    <rect x="470" y="412" width="190" height="58" fill="#1c130a" stroke="#d8a030" stroke-width="2"/>
    <text x="565" y="447" text-anchor="middle" font-family="Rockwell, Georgia, serif" font-weight="900" font-size="32" letter-spacing="5" fill="#f2c14e">KAAPI</text>
    <text x="565" y="463" text-anchor="middle" font-family="Georgia, serif" font-size="10.5" letter-spacing="2" fill="#d8a05a">FILTER COFFEE &#8226; TEA</text>
    <path d="M560,548 L560,522 Q560,506 578,506 L592,506 Q610,506 610,522 L610,548 Z" fill="#b0803c"/>
    <circle cx="585" cy="502" r="4" fill="#d8a030"/>
    <path d="M578,498 q-7,-12 1,-24 q8,-12 0,-24" stroke="#e8e0d0" stroke-width="3" fill="none" opacity="0.35" stroke-linecap="round"/>
    <path d="M594,498 q6,-10 -1,-22 q-7,-12 1,-22" stroke="#e8e0d0" stroke-width="3" fill="none" opacity="0.25" stroke-linecap="round"/>
    <circle cx="655" cy="502" r="10" fill="#14100a"/>
    <path d="M640,548 Q642,514 655,512 Q668,514 670,548 Z" fill="#14100a"/>
    <line x1="450" y1="398" x2="450" y2="448" stroke="#10141f" stroke-width="2"/>
    <circle cx="450" cy="453" r="15" fill="url(#glow)" opacity="0.8"/>
    <circle cx="450" cy="453" r="5" fill="#ffd27a"/>

    <!-- stall C: fruits -->
    <line x1="805" y1="620" x2="805" y2="375" stroke="#241c12" stroke-width="5"/>
    <line x1="1045" y1="620" x2="1045" y2="372" stroke="#241c12" stroke-width="5"/>
    <rect x="803" y="412" width="244" height="140" fill="#33241a"/>
    <rect x="795" y="550" width="260" height="58" fill="#2c2620"/>
    <rect x="795" y="550" width="260" height="8" fill="#4a3c28"/>
    <path d="M785,378 L1065,368 L1065,406 Q1048,418 1031,405 Q1014,417 997,404 Q980,416 963,403 Q946,415 929,402 Q912,414 895,401 Q878,413 861,400 Q844,412 827,399 Q810,411 793,398 L785,397 Z" fill="#94402c"/>
    <path d="M840,376 L872,375 L872,400 L840,401 Z" fill="#7c3524"/>
    <path d="M960,372 L992,371 L992,404 L960,405 Z" fill="#7c3524"/>
    <rect x="830" y="505" width="55" height="45" fill="#4a3826"/>
    <rect x="892" y="515" width="50" height="35" fill="#3c2e1e"/>
    <rect x="838" y="470" width="46" height="35" fill="#55422c"/>
    <circle cx="846" cy="468" r="5" fill="#d8622c"/>
    <circle cx="860" cy="464" r="5" fill="#d8622c"/>
    <circle cx="874" cy="468" r="5" fill="#d8622c"/>
    <circle cx="905" cy="512" r="5" fill="#c9722c"/>
    <circle cx="919" cy="509" r="5" fill="#c9722c"/>
    <path d="M985,408 q3,26 -2,50" stroke="#b9973a" stroke-width="8" fill="none" stroke-linecap="round"/>
    <path d="M1005,406 q-3,22 1,44" stroke="#a8862f" stroke-width="7" fill="none" stroke-linecap="round"/>
    <line x1="925" y1="404" x2="925" y2="448" stroke="#10141f" stroke-width="2"/>
    <circle cx="925" cy="453" r="15" fill="url(#glow)" opacity="0.8"/>
    <circle cx="925" cy="453" r="5" fill="#ffd27a"/>
    <circle cx="1010" cy="512" r="9" fill="#14100a"/>
    <path d="M996,550 Q998,522 1010,520 Q1022,522 1024,550 Z" fill="#14100a"/>
  </g>

  <!-- string lights between stalls -->
  <path d="M302,386 Q368,424 434,366" stroke="#141a28" stroke-width="2" fill="none"/>
  <circle cx="328" cy="397" r="10" fill="url(#glow)" opacity="0.7"/>
  <circle cx="328" cy="397" r="4" fill="#ffd27a"/>
  <circle cx="355" cy="401" r="10" fill="url(#glow)" opacity="0.7"/>
  <circle cx="355" cy="401" r="4" fill="#ffd27a"/>
  <circle cx="381" cy="397" r="10" fill="url(#glow)" opacity="0.7"/>
  <circle cx="381" cy="397" r="4" fill="#ffd27a"/>
  <circle cx="408" cy="385" r="10" fill="url(#glow)" opacity="0.7"/>
  <circle cx="408" cy="385" r="4" fill="#ffd27a"/>
  <path d="M696,360 Q750,398 804,376" stroke="#141a28" stroke-width="2" fill="none"/>
  <circle cx="723" cy="375" r="10" fill="url(#glow)" opacity="0.7"/>
  <circle cx="723" cy="375" r="4" fill="#ffd27a"/>
  <circle cx="750" cy="383" r="10" fill="url(#glow)" opacity="0.7"/>
  <circle cx="750" cy="383" r="4" fill="#ffd27a"/>
  <circle cx="777" cy="383" r="10" fill="url(#glow)" opacity="0.7"/>
  <circle cx="777" cy="383" r="4" fill="#ffd27a"/>

  <!-- street lamp -->
  <path d="M772,424 L706,622 L852,622 Z" fill="#f2c14e" opacity="0.07"/>
  <rect x="752" y="432" width="6" height="188" fill="#1a2130"/>
  <path d="M755,436 Q755,418 776,418" stroke="#1a2130" stroke-width="5" fill="none"/>
  <circle cx="779" cy="418" r="24" fill="url(#glow)" opacity="0.9"/>
  <circle cx="779" cy="418" r="7" fill="#ffd27a"/>

  <!-- people -->
  <path d="M333,522 Q359,500 385,522 Q372,516 359,518 Q346,516 333,522 Z" fill="#35506e"/>
  <path d="M351,562 L353,528 Q359,521 365,528 L367,562 Z" fill="#0d1120"/>
  <circle cx="472" cy="553" r="10" fill="#0d1120"/>
  <path d="M455,662 L458,586 Q458,566 472,564 Q486,566 486,586 L490,662 Z" fill="#0d1120"/>
  <rect x="486" y="584" width="9" height="7" fill="#d8d0c0"/>
  <circle cx="641" cy="587" r="10" fill="#0c101e"/>
  <path d="M624,700 L627,616 Q627,598 641,596 Q655,598 656,616 L661,700 Z" fill="#0c101e"/>
  <line x1="640" y1="560" x2="640" y2="612" stroke="#10141f" stroke-width="3"/>
  <path d="M588,562 Q640,518 692,562 Q666,552 640,557 Q614,552 588,562 Z" fill="#a83a32"/>

  <!-- auto-rickshaw -->
  <path d="M946,650 L824,702 L946,674 Z" fill="#f2c14e" opacity="0.1"/>
  <path d="M948,722 L948,642 Q948,602 992,598 L1118,598 Q1162,602 1162,642 L1162,722 Z" fill="#161c2c"/>
  <rect x="962" y="590" width="190" height="10" fill="#d8a030"/>
  <path d="M1002,642 L1002,614 L1104,614 L1104,642 Z" fill="#2c3a52"/>
  <circle cx="992" cy="726" r="22" fill="#0a0d16"/>
  <circle cx="992" cy="726" r="6" fill="#3a4254"/>
  <circle cx="1124" cy="726" r="22" fill="#0a0d16"/>
  <circle cx="1124" cy="726" r="6" fill="#3a4254"/>
  <circle cx="952" cy="656" r="6" fill="#ffd27a"/>

  <!-- rain splashes -->
  <circle cx="320" cy="694" r="3" fill="none" stroke="#a9c1e2" stroke-width="1" opacity="0.35"/>
  <circle cx="540" cy="748" r="3" fill="none" stroke="#a9c1e2" stroke-width="1" opacity="0.35"/>
  <circle cx="730" cy="662" r="3" fill="none" stroke="#a9c1e2" stroke-width="1" opacity="0.35"/>
  <circle cx="900" cy="708" r="3" fill="none" stroke="#a9c1e2" stroke-width="1" opacity="0.35"/>

  <!-- rain -->
  <g id="rain" stroke-linecap="round">
    <g stroke="#8fa8cc" stroke-width="1" opacity="0.22">
      <line x1="60" y1="40" x2="51" y2="72"/>
      <line x1="180" y1="20" x2="171" y2="52"/>
      <line x1="300" y1="70" x2="291" y2="102"/>
      <line x1="420" y1="30" x2="411" y2="62"/>
      <line x1="540" y1="60" x2="531" y2="92"/>
      <line x1="660" y1="25" x2="651" y2="57"/>
      <line x1="780" y1="55" x2="771" y2="87"/>
      <line x1="900" y1="35" x2="891" y2="67"/>
      <line x1="1020" y1="65" x2="1011" y2="97"/>
      <line x1="1140" y1="30" x2="1131" y2="62"/>
      <line x1="120" y1="180" x2="111" y2="212"/>
      <line x1="260" y1="150" x2="251" y2="182"/>
      <line x1="400" y1="190" x2="391" y2="222"/>
      <line x1="540" y1="160" x2="531" y2="192"/>
      <line x1="680" y1="200" x2="671" y2="232"/>
      <line x1="820" y1="170" x2="811" y2="202"/>
      <line x1="960" y1="150" x2="951" y2="182"/>
      <line x1="1100" y1="190" x2="1091" y2="222"/>
      <line x1="200" y1="320" x2="191" y2="352"/>
      <line x1="500" y1="300" x2="491" y2="332"/>
    </g>
    <g stroke="#a9c1e2" stroke-width="1.2" opacity="0.3">
      <line x1="90" y1="90" x2="79" y2="132"/>
      <line x1="230" y1="120" x2="219" y2="162"/>
      <line x1="370" y1="80" x2="359" y2="122"/>
      <line x1="510" y1="130" x2="499" y2="172"/>
      <line x1="650" y1="95" x2="639" y2="137"/>
      <line x1="790" y1="140" x2="779" y2="182"/>
      <line x1="930" y1="100" x2="919" y2="142"/>
      <line x1="1070" y1="120" x2="1059" y2="162"/>
      <line x1="1190" y1="90" x2="1179" y2="132"/>
      <line x1="150" y1="260" x2="139" y2="302"/>
      <line x1="330" y1="240" x2="319" y2="282"/>
      <line x1="510" y1="270" x2="499" y2="312"/>
      <line x1="690" y1="250" x2="679" y2="292"/>
      <line x1="870" y1="280" x2="859" y2="322"/>
      <line x1="1050" y1="240" x2="1039" y2="282"/>
      <line x1="60" y1="420" x2="49" y2="462"/>
      <line x1="440" y1="400" x2="429" y2="442"/>
      <line x1="980" y1="430" x2="969" y2="472"/>
    </g>
    <g stroke="#c9d9f2" stroke-width="1.6" opacity="0.38">
      <line x1="40" y1="200" x2="25" y2="258"/>
      <line x1="210" y1="170" x2="195" y2="228"/>
      <line x1="380" y1="220" x2="365" y2="278"/>
      <line x1="550" y1="180" x2="535" y2="238"/>
      <line x1="720" y1="230" x2="705" y2="288"/>
      <line x1="890" y1="190" x2="875" y2="248"/>
      <line x1="1060" y1="210" x2="1045" y2="268"/>
      <line x1="1180" y1="250" x2="1165" y2="308"/>
      <line x1="130" y1="380" x2="115" y2="438"/>
      <line x1="310" y1="350" x2="295" y2="408"/>
      <line x1="490" y1="390" x2="475" y2="448"/>
      <line x1="670" y1="360" x2="655" y2="418"/>
      <line x1="850" y1="400" x2="835" y2="458"/>
      <line x1="1030" y1="370" x2="1015" y2="428"/>
      <line x1="90" y1="560" x2="75" y2="618"/>
      <line x1="360" y1="540" x2="345" y2="598"/>
      <line x1="760" y1="570" x2="745" y2="628"/>
      <line x1="1120" y1="550" x2="1105" y2="608"/>
    </g>
  </g>

  <!-- vignette -->
  <rect x="0" y="0" width="1200" height="800" fill="url(#vig)"/>
</svg>
